HIERARCHY
ROOT Hips
{
    OFFSET 0.000000 0.000000 0.000000
    CHANNELS 6 Xposition Yposition Zposition Zrotation Yrotation Xrotation
    JOINT Chest
    {
        OFFSET 0.000000 1.634758 -0.000000
        CHANNELS 3 Zrotation Yrotation Xrotation
        JOINT Chest2
        {
            OFFSET 0.000000 2.197341 0.000000
            CHANNELS 3 Zrotation Yrotation Xrotation
            JOINT Neck
            {
                OFFSET 0.000000 0.961544 0.000000
                CHANNELS 3 Zrotation Yrotation Xrotation
                JOINT Head
                {
                    OFFSET 0.000000 0.632542 -0.032565
                    CHANNELS 3 Zrotation Yrotation Xrotation
                    End Site
                    {
                        OFFSET -0.000001 0.439502 2.922845
                    }
                }
            }
            JOINT LeftCollar
            {
                OFFSET 0.167536 0.778237 -0.168280
                CHANNELS 3 Zrotation Yrotation Xrotation
                JOINT LeftShoulder
                {
                    OFFSET 0.831514 -0.002900 0.006458
                    CHANNELS 3 Zrotation Yrotation Xrotation
                    JOINT LeftElbow
                    {
                        OFFSET 2.272872 -0.026639 0.059314
                        CHANNELS 3 Zrotation Yrotation Xrotation
                        JOINT LeftWrist
                        {
                            OFFSET 2.081982 -0.024402 0.054333
                            CHANNELS 3 Zrotation Yrotation Xrotation
                            JOINT LeftHandThumb1
                            {
                                OFFSET 0.218903 -0.128645 0.283837
                                CHANNELS 3 Zrotation Yrotation Xrotation
                                JOINT LeftHandThumb2
                                {
                                    OFFSET 0.137157 -0.025101 0.077902
                                    CHANNELS 3 Zrotation Yrotation Xrotation
                                    JOINT LeftHandThumb3
                                    {
                                        OFFSET 0.165861 -0.067014 0.039226
                                        CHANNELS 3 Zrotation Yrotation Xrotation
                                        End Site
                                        {
                                            OFFSET 0.241157 -0.045065 0.107930
                                        }
                                    }
                                }
                            }
                            JOINT LeftHandFore1
                            {
                                OFFSET 0.767340 -0.016076 0.196678
                                CHANNELS 3 Zrotation Yrotation Xrotation
                                JOINT LeftHandFore2
                                {
                                    OFFSET 0.215173 -0.024035 0.010864
                                    CHANNELS 3 Zrotation Yrotation Xrotation
                                    JOINT LeftHandFore3
                                    {
                                        OFFSET 0.127998 -0.018363 0.006493
                                        CHANNELS 3 Zrotation Yrotation Xrotation
                                        End Site
                                        {
                                            OFFSET 0.191872 -0.022849 0.005461
                                        }
                                    }
                                }
                            }
                            JOINT LeftHandMiddle1
                            {
                                OFFSET 0.709887 -0.008320 0.018526
                                CHANNELS 3 Zrotation Yrotation Xrotation
                                JOINT LeftHandMiddle2
                                {
                                    OFFSET 0.243305 -0.028680 0.006624
                                    CHANNELS 3 Zrotation Yrotation Xrotation
                                    JOINT LeftHandMiddle3
                                    {
                                        OFFSET 0.145223 -0.016669 0.003951
                                        CHANNELS 3 Zrotation Yrotation Xrotation
                                        End Site
                                        {
                                            OFFSET 0.233621 -0.031666 0.006995
                                        }
                                    }
                                }
                            }
                            JOINT LeftHandRing1
                            {
                                OFFSET 0.743817 -0.005823 -0.153668
                                CHANNELS 3 Zrotation Yrotation Xrotation
                                JOINT LeftHandRing2
                                {
                                    OFFSET 0.349394 -0.050632 -0.009675
                                    CHANNELS 3 Zrotation Yrotation Xrotation
                                    JOINT LeftHandRing3
                                    {
                                        OFFSET 0.134332 -0.023631 0.001421
                                        CHANNELS 3 Zrotation Yrotation Xrotation
                                        End Site
                                        {
                                            OFFSET 0.116893 -0.027460 0.001278
                                        }
                                    }
                                }
                            }
                            JOINT LeftHandLittle1
                            {
                                OFFSET 0.689408 -0.053302 -0.308304
                                CHANNELS 3 Zrotation Yrotation Xrotation
                                JOINT LeftHandLittle2
                                {
                                    OFFSET 0.193251 -0.018757 -0.018874
                                    CHANNELS 3 Zrotation Yrotation Xrotation
                                    JOINT LeftHandLittle3
                                    {
                                        OFFSET 0.116994 -0.025997 -0.011519
                                        CHANNELS 3 Zrotation Yrotation Xrotation
                                        End Site
                                        {
                                            OFFSET 0.189726 -0.012367 -0.011818
                                        }
                                    }
                                }
                            }
                        }
                    }
                }
            }
            JOINT RightCollar
            {
                OFFSET -0.167536 0.778237 -0.168280
                CHANNELS 3 Zrotation Yrotation Xrotation
                JOINT RightShoulder
                {
                    OFFSET -0.831514 -0.002900 0.006457
                    CHANNELS 3 Zrotation Yrotation Xrotation
                    JOINT RightElbow
                    {
                        OFFSET -2.272872 -0.026639 0.059313
                        CHANNELS 3 Zrotation Yrotation Xrotation
                        JOINT RightWrist
                        {
                            OFFSET -2.081982 -0.024402 0.054331
                            CHANNELS 3 Zrotation Yrotation Xrotation
                            JOINT RightHandThumb1
                            {
                                OFFSET -0.218911 -0.128571 0.283837
                                CHANNELS 3 Zrotation Yrotation Xrotation
                                JOINT RightHandThumb2
                                {
                                    OFFSET -0.137157 -0.025101 0.077902
                                    CHANNELS 3 Zrotation Yrotation Xrotation
                                    JOINT RightHandThumb3
                                    {
                                        OFFSET -0.165861 -0.067014 0.039226
                                        CHANNELS 3 Zrotation Yrotation Xrotation
                                        End Site
                                        {
                                            OFFSET -0.229436 -0.065997 0.121819
                                        }
                                    }
                                }
                            }
                            JOINT RightHandFore1
                            {
                                OFFSET -0.767344 -0.015991 0.196679
                                CHANNELS 3 Zrotation Yrotation Xrotation
                                JOINT RightHandFore2
                                {
                                    OFFSET -0.215182 -0.023988 0.010864
                                    CHANNELS 3 Zrotation Yrotation Xrotation
                                    JOINT RightHandFore3
                                    {
                                        OFFSET -0.127999 -0.018333 0.006493
                                        CHANNELS 3 Zrotation Yrotation Xrotation
                                        End Site
                                        {
                                            OFFSET -0.191454 -0.022769 0.013914
                                        }
                                    }
                                }
                            }
                            JOINT RightHandMiddle1
                            {
                                OFFSET -0.709887 -0.008302 0.018525
                                CHANNELS 3 Zrotation Yrotation Xrotation
                                JOINT RightHandMiddle2
                                {
                                    OFFSET -0.243299 -0.028704 0.006624
                                    CHANNELS 3 Zrotation Yrotation Xrotation
                                    JOINT RightHandMiddle3
                                    {
                                        OFFSET -0.145226 -0.016685 0.003951
                                        CHANNELS 3 Zrotation Yrotation Xrotation
                                        End Site
                                        {
                                            OFFSET -0.233653 -0.031672 0.005780
                                        }
                                    }
                                }
                            }
                            JOINT RightHandRing1
                            {
                                OFFSET -0.743819 -0.005785 -0.153669
                                CHANNELS 3 Zrotation Yrotation Xrotation
                                JOINT RightHandRing2
                                {
                                    OFFSET -0.349398 -0.050607 -0.009675
                                    CHANNELS 3 Zrotation Yrotation Xrotation
                                    JOINT RightHandRing3
                                    {
                                        OFFSET -0.134041 -0.023657 -0.008853
                                        CHANNELS 3 Zrotation Yrotation Xrotation
                                        End Site
                                        {
                                            OFFSET -0.116640 -0.027483 -0.007747
                                        }
                                    }
                                }
                            }
                            JOINT RightHandLittle1
                            {
                                OFFSET -0.689403 -0.053298 -0.308303
                                CHANNELS 3 Zrotation Yrotation Xrotation
                                JOINT RightHandLittle2
                                {
                                    OFFSET -0.193254 -0.018752 -0.018875
                                    CHANNELS 3 Zrotation Yrotation Xrotation
                                    JOINT RightHandLittle3
                                    {
                                        OFFSET -0.116992 -0.025993 -0.011520
                                        CHANNELS 3 Zrotation Yrotation Xrotation
                                        End Site
                                        {
                                            OFFSET -0.188440 -0.012318 -0.025042
                                        }
                                    }
                                }
                            }
                        }
                    }
                }
            }
        }
    }
    JOINT LeftHip
    {
        OFFSET 0.685143 0.673822 -0.044491
        CHANNELS 3 Zrotation Yrotation Xrotation
        JOINT LeftKnee
        {
            OFFSET 0.085364 -3.750208 0.017676
            CHANNELS 3 Zrotation Yrotation Xrotation
            JOINT LeftAnkle
            {
                OFFSET 0.094583 -4.155206 0.019585
                CHANNELS 3 Zrotation Yrotation Xrotation
                JOINT LeftToe
                {
                    OFFSET -0.000000 -0.395925 0.621478
                    CHANNELS 3 Zrotation Yrotation Xrotation
                    End Site
                    {
                        OFFSET -0.000000 -0.077878 0.321152
                    }
                }
            }
        }
    }
    JOINT RightHip
    {
        OFFSET -0.685143 0.673822 -0.044492
        CHANNELS 3 Zrotation Yrotation Xrotation
        JOINT RightKnee
        {
            OFFSET -0.085364 -3.750208 0.017677
            CHANNELS 3 Zrotation Yrotation Xrotation
            JOINT RightAnkle
            {
                OFFSET -0.094583 -4.155206 0.019585
                CHANNELS 3 Zrotation Yrotation Xrotation
                JOINT RightToe
                {
                    OFFSET -0.000000 -0.395925 0.621478
                    CHANNELS 3 Zrotation Yrotation Xrotation
                    End Site
                    {
                        OFFSET -0.000000 -0.077878 0.321152
                    }
                }
            }
        }
    }
}
MOTION
Frames: 4
Frame Time: 0.033333
-0.339477 8.212379 0.407424 -177.885742 33.951313 -158.298782 -5.066887 17.898863 -25.175907 0.178214 -2.795210 -3.649607 -3.098798 0.548621 12.034883 0.234377 -4.542777 25.641441 -12.663493 3.302045 -0.611827 -47.802303 1.602288 0.264328 -0.000004 -0.000000 -0.000001 22.503994 2.758776 2.340573 0.000001 0.000002 -0.000008 0.000005 0.000002 0.000001 0.000006 0.000003 0.000002 0.000001 0.000001 -0.000001 -0.000002 0.000002 -0.000001 0.000010 0.000002 0.000002 0.000005 0.000002 -0.000002 -0.000001 0.000001 0.000001 -0.000003 -0.000001 0.000000 -0.000001 0.000001 -0.000001 0.000006 0.000001 -0.000002 0.000003 0.000001 0.000000 -0.000000 -0.000000 -0.000001 -0.000002 -0.000001 -0.000000 -0.000000 -0.000000 0.000002 12.435227 -0.813641 0.616443 47.833309 -11.426774 -1.698375 0.000005 0.000001 0.000000 -20.800621 6.145083 7.000293 0.000003 -0.000000 -0.000002 0.000000 -0.000003 0.000004 -0.000002 -0.000000 0.000003 0.000001 -0.000002 0.000000 -0.000001 -0.000002 0.000001 0.000003 -0.000000 0.000001 0.000004 -0.000000 0.000002 0.000001 -0.000000 0.000000 0.000000 0.000002 0.000000 0.000002 -0.000002 0.000001 -0.000005 -0.000000 -0.000001 0.000004 0.000002 -0.000001 -0.000001 -0.000000 0.000003 0.000001 -0.000000 -0.000002 -0.000002 -0.000000 0.000003 -15.898611 24.214830 -39.376545 0.150046 0.607302 27.753777 8.749713 8.066503 -21.460888 -0.000000 0.000000 -0.000001 8.393027 0.977309 -15.943682 -0.048180 -0.351241 15.623597 7.298733 11.985554 -4.549261 -0.818631 6.830223 -20.481800
-0.339451 8.212379 0.407410 -177.885742 33.951466 -158.298660 -5.067249 17.898764 -25.176441 0.177902 -2.795166 -3.649916 -3.099591 0.549017 12.031437 0.234318 -4.541647 25.634665 -12.663354 3.302134 -0.611802 -47.801685 1.602791 0.264224 -0.000003 -0.000002 0.000000 22.503994 2.758775 2.340573 -0.000012 0.000007 0.000000 -0.000003 -0.000000 -0.000001 0.000002 -0.000000 -0.000001 -0.000003 -0.000000 0.000004 -0.000001 0.000001 -0.000001 0.000003 0.000001 0.000002 -0.000006 0.000002 0.000003 -0.000001 -0.000002 0.000002 0.000005 -0.000000 -0.000001 0.000001 -0.000001 0.000004 0.000001 -0.000002 -0.000000 0.000003 0.000002 0.000001 -0.000009 -0.000003 0.000004 0.000000 -0.000001 0.000000 -0.000002 -0.000001 0.000001 12.435332 -0.813843 0.616441 47.833794 -11.427212 -1.698516 -0.000000 -0.000001 0.000000 -20.800621 6.145081 7.000295 0.000009 0.000009 -0.000001 -0.000002 -0.000002 0.000005 0.000003 -0.000002 0.000000 0.000002 -0.000007 -0.000003 -0.000007 0.000002 0.000002 -0.000002 -0.000000 0.000001 0.000001 -0.000002 0.000001 -0.000004 0.000002 0.000000 -0.000000 0.000002 0.000001 -0.000000 -0.000003 0.000001 -0.000005 -0.000000 -0.000001 -0.000005 -0.000000 0.000000 -0.000007 0.000002 0.000002 0.000001 -0.000005 0.000003 -0.000001 0.000002 -0.000002 -15.898280 24.214830 -39.375652 0.150024 0.607260 27.751589 8.749831 8.065184 -21.459932 -0.000000 -0.000000 -0.000005 8.393866 0.977784 -15.945768 -0.048192 -0.351282 15.625555 7.297845 11.985251 -4.549829 -0.818504 6.829961 -20.481001
-0.339363 8.212379 0.407364 -177.885742 33.951466 -158.298660 -5.068057 17.898132 -25.177588 0.176968 -2.794977 -3.650818 -3.101951 0.550141 12.021583 0.234144 -4.538291 25.615189 -12.662891 3.302351 -0.611725 -47.799789 1.604255 0.263929 0.000000 -0.000000 0.000001 22.504000 2.758775 2.340574 -0.000017 0.000011 -0.000006 0.000007 0.000002 0.000002 0.000002 -0.000001 -0.000002 0.000004 -0.000003 0.000005 -0.000002 -0.000000 0.000001 0.000001 0.000001 0.000001 -0.000002 -0.000001 0.000005 -0.000001 0.000002 -0.000000 -0.000001 -0.000001 0.000001 0.000000 -0.000003 0.000007 0.000003 0.000003 -0.000003 0.000001 -0.000002 0.000000 -0.000011 -0.000009 0.000007 -0.000001 -0.000001 0.000002 0.000001 -0.000000 0.000001 12.435625 -0.814488 0.616403 47.835373 -11.428516 -1.698963 0.000002 -0.000000 0.000002 -20.800623 6.145083 7.000296 0.000007 0.000007 0.000013 0.000001 -0.000002 0.000003 0.000003 -0.000000 -0.000001 0.000002 -0.000003 -0.000003 -0.000001 0.000002 0.000001 0.000004 -0.000000 -0.000002 0.000008 -0.000000 0.000000 0.000004 -0.000000 -0.000003 -0.000001 -0.000003 0.000000 0.000001 -0.000000 -0.000001 0.000003 0.000002 -0.000001 0.000003 -0.000003 -0.000002 -0.000003 -0.000002 -0.000003 0.000004 -0.000000 0.000003 -0.000009 0.000002 0.000000 -15.897125 24.214947 -39.372627 0.149956 0.607130 27.745218 8.750244 8.060861 -21.457203 -0.000000 -0.000000 -0.000001 8.396436 0.979220 -15.951545 -0.048228 -0.351407 15.631411 7.295249 11.983885 -4.551711 -0.818124 6.829170 -20.478649
-0.339219 8.212377 0.407286 -177.885742 33.951466 -158.298660 -5.069379 17.897099 -25.179464 0.175431 -2.794661 -3.652313 -3.105852 0.552002 12.006063 0.233854 -4.532707 25.584320 -12.662151 3.302695 -0.611601 -47.796703 1.606672 0.263459 -0.000003 -0.000000 0.000001 22.503994 2.758775 2.340575 -0.000014 0.000006 -0.000009 -0.000002 0.000003 0.000001 -0.000001 -0.000001 0.000001 -0.000011 -0.000003 0.000001 -0.000000 -0.000000 0.000000 0.000004 -0.000000 -0.000002 -0.000006 -0.000002 0.000002 -0.000002 -0.000003 0.000000 -0.000002 0.000001 0.000001 0.000004 0.000001 0.000002 -0.000004 -0.000002 -0.000000 0.000001 -0.000000 -0.000000 -0.000016 -0.000004 0.000004 0.000001 -0.000003 0.000000 -0.000004 -0.000000 -0.000001 12.436128 -0.815562 0.616336 47.837898 -11.430667 -1.699671 -0.000001 -0.000000 0.000000 -20.800621 6.145082 7.000298 -0.000003 0.000005 -0.000003 0.000001 -0.000003 0.000004 -0.000001 0.000002 0.000004 -0.000006 -0.000000 0.000001 0.000002 0.000002 -0.000002 0.000001 -0.000000 0.000000 -0.000005 0.000003 0.000002 -0.000004 -0.000002 -0.000001 -0.000004 -0.000000 -0.000002 -0.000014 0.000003 0.000001 0.000002 -0.000000 0.000002 0.000003 0.000002 -0.000001 -0.000006 -0.000000 0.000002 -0.000003 -0.000002 0.000001 -0.000003 0.000003 0.000000 -15.895224 24.215139 -39.367702 0.149845 0.606920 27.734835 8.750915 8.053774 -21.452749 -0.000000 -0.000001 -0.000002 8.400643 0.981591 -15.961135 -0.048289 -0.351629 15.641256 7.290973 11.981657 -4.554910 -0.817488 6.827841 -20.474670
